
<global>
ampeg_release=1.5
</global>

<group>
group_label=RR2
seq_length=4
seq_position=1

<region>
hivel=103
key=D3
lovel=78
offset=6487
sample=Bass_a1_HotRods_Hits_F_D4_RR2.opus
</region>

<region>
hivel=127
key=D3
lovel=104
offset=5063
sample=Bass_a1_HotRods_Hits_FF_D4_RR2.opus
</region>

<region>
hivel=77
key=D3
lovel=52
offset=5151
sample=Bass_a1_HotRods_Hits_MF_D4_RR2.opus
</region>

<region>
hivel=51
key=D3
lovel=26
offset=6237
sample=Bass_a1_HotRods_Hits_MP_D4_RR2.opus
</region>

<region>
hivel=25
key=D3
lovel=0
offset=6749
sample=Bass_a1_HotRods_Hits_P_D4_RR2.opus
</region>
</group>

<group>
group_label=RR4
seq_length=4
seq_position=2

<region>
hivel=103
key=D3
lovel=78
offset=588
sample=Bass_a1_HotRods_Hits_F_D4_RR4.opus
</region>

<region>
hivel=127
key=D3
lovel=104
offset=7223
sample=Bass_a1_HotRods_Hits_FF_D4_RR4.opus
</region>

<region>
hivel=77
key=D3
lovel=52
offset=5899
sample=Bass_a1_HotRods_Hits_MF_D4_RR4.opus
</region>

<region>
hivel=51
key=D3
lovel=26
offset=7309
sample=Bass_a1_HotRods_Hits_MP_D4_RR4.opus
</region>

<region>
hivel=25
key=D3
lovel=0
offset=5409
sample=Bass_a1_HotRods_Hits_P_D4_RR4.opus
</region>
</group>

<group>
group_label=RR6
seq_length=4
seq_position=3

<region>
hivel=103
key=D3
lovel=78
offset=5397
sample=Bass_a1_HotRods_Hits_F_D4_RR6.opus
</region>

<region>
hivel=127
key=D3
lovel=104
offset=738
sample=Bass_a1_HotRods_Hits_FF_D4_RR6.opus
</region>

<region>
hivel=77
key=D3
lovel=52
offset=4924
sample=Bass_a1_HotRods_Hits_MF_D4_RR6.opus
</region>

<region>
hivel=51
key=D3
lovel=26
offset=6300
sample=Bass_a1_HotRods_Hits_MP_D4_RR6.opus
</region>

<region>
hivel=25
key=D3
lovel=0
offset=5853
sample=Bass_a1_HotRods_Hits_P_D4_RR6.opus
</region>
</group>

<group>
group_label=RR8
seq_length=4
seq_position=4

<region>
hivel=103
key=D3
lovel=78
offset=4541
sample=Bass_a1_HotRods_Hits_F_D4_RR8.opus
</region>

<region>
hivel=127
key=D3
lovel=104
offset=2499
sample=Bass_a1_HotRods_Hits_FF_D4_RR8.opus
</region>

<region>
hivel=77
key=D3
lovel=52
offset=6305
sample=Bass_a1_HotRods_Hits_MF_D4_RR8.opus
</region>

<region>
hivel=51
key=D3
lovel=26
offset=6469
sample=Bass_a1_HotRods_Hits_MP_D4_RR8.opus
</region>

<region>
hivel=25
key=D3
lovel=0
offset=6633
sample=Bass_a1_HotRods_Hits_P_D4_RR8.opus
</region>
</group>

<group>
group_label=Rim_RR2
seq_length=2
seq_position=1

<region>
hivel=103
key=E3
lovel=78
offset=6115
sample=Bass_a1_HotRods_Rim_Hit_F_D4_RR2.opus
</region>

<region>
hivel=127
key=E3
lovel=104
offset=6207
sample=Bass_a1_HotRods_Rim_Hit_FF_D4_RR2.opus
</region>

<region>
hivel=77
key=E3
lovel=52
offset=6268
sample=Bass_a1_HotRods_Rim_Hit_MF_D4_RR2.opus
</region>

<region>
hivel=51
key=E3
lovel=26
offset=5791
sample=Bass_a1_HotRods_Rim_Hit_MP_D4_RR2.opus
</region>

<region>
hivel=25
key=E3
lovel=0
offset=6570
sample=Bass_a1_HotRods_Rim_Hit_P_D4_RR2.opus
</region>
</group>

<group>
group_label=Rim_RR4
seq_length=2
seq_position=2

<region>
hivel=103
key=E3
lovel=78
offset=4558
sample=Bass_a1_HotRods_Rim_Hit_F_D4_RR4.opus
</region>

<region>
hivel=127
key=E3
lovel=104
offset=7068
sample=Bass_a1_HotRods_Rim_Hit_FF_D4_RR4.opus
</region>

<region>
hivel=77
key=E3
lovel=52
offset=6277
sample=Bass_a1_HotRods_Rim_Hit_MF_D4_RR4.opus
</region>

<region>
hivel=51
key=E3
lovel=26
offset=5354
sample=Bass_a1_HotRods_Rim_Hit_MP_D4_RR4.opus
</region>

<region>
hivel=25
key=E3
lovel=0
offset=7447
sample=Bass_a1_HotRods_Rim_Hit_P_D4_RR4.opus
</region>
</group>